<?xml version="1.0" encoding="UTF-8" standalone="no"?>
<!-- Created with Inkscape (http://www.inkscape.org/) -->

<svg
   width="15.999999"
   height="15.999999"
   viewBox="0 0 4.233333 4.233333"
   version="1.1"
   id="svg1"
   xmlns="http://www.w3.org/2000/svg"
   xmlns:svg="http://www.w3.org/2000/svg">
  <defs
     id="defs1" />
  <g
     id="layer1"
     style="stroke-width:0.625602;stroke-dasharray:none"
     transform="matrix(0.55017116,0,0,0.55017116,-0.0526205,1.8236149)">
    <path
       style="fill:none;stroke:#fc7f7f;stroke-width:0.794043;stroke-linejoin:bevel;stroke-miterlimit:0;stroke-dasharray:none"
       id="path1"
       d="m 1.5637676,2.679138 c -0.1021024,0 -1.71741384,-0.9326004 -1.76846503,-1.0210237 -0.0510512,-0.088423 -0.0510512,-1.95362425 -6e-8,-2.0420475 0.0510512,-0.0884233 1.66636259,-1.0210238 1.76846499,-1.0210238 0.1021024,0 1.7174138,0.93260046 1.768465,1.02102371 0.051051,0.0884233 0.051051,1.95362429 1e-7,2.04204749 C 3.2811814,1.7465375 1.66587,2.679138 1.5637676,2.679138 Z"
       transform="matrix(0.78786877,0,0,0.78786877,0.90835932,1.6014979)" />
  </g>
  <g
     id="g2"
     style="stroke-width:0.625602;stroke-dasharray:none"
     transform="matrix(0.55017116,0,0,0.55017116,0.93803666,0.10595869)">
    <path
       style="fill:none;stroke:#fc7f7f;stroke-width:0.794043;stroke-linejoin:bevel;stroke-miterlimit:0;stroke-dasharray:none"
       id="path2"
       d="m 1.5637676,2.679138 c -0.1021024,0 -1.71741384,-0.9326004 -1.76846503,-1.0210237 -0.0510512,-0.088423 -0.0510512,-1.95362425 -6e-8,-2.0420475 0.0510512,-0.0884233 1.66636259,-1.0210238 1.76846499,-1.0210238 0.1021024,0 1.7174138,0.93260046 1.768465,1.02102371 0.051051,0.0884233 0.051051,1.95362429 1e-7,2.04204749 C 3.2811814,1.7465375 1.66587,2.679138 1.5637676,2.679138 Z"
       transform="matrix(0.78786877,0,0,0.78786877,0.90835932,1.6014979)" />
  </g>
  <g
     id="g3"
     style="stroke-width:0.625602;stroke-dasharray:none"
     transform="matrix(0.55017116,0,0,0.55017116,1.9160885,1.8236149)">
    <path
       style="fill:none;stroke:#fc7f7f;stroke-width:0.794043;stroke-linejoin:bevel;stroke-miterlimit:0;stroke-dasharray:none"
       id="path3"
       d="m 1.5637676,2.679138 c -0.1021024,0 -1.71741384,-0.9326004 -1.76846503,-1.0210237 -0.0510512,-0.088423 -0.0510512,-1.95362425 -6e-8,-2.0420475 0.0510512,-0.0884233 1.66636259,-1.0210238 1.76846499,-1.0210238 0.1021024,0 1.7174138,0.93260046 1.768465,1.02102371 0.051051,0.0884233 0.051051,1.95362429 1e-7,2.04204749 C 3.2811814,1.7465375 1.66587,2.679138 1.5637676,2.679138 Z"
       transform="matrix(0.78786877,0,0,0.78786877,0.90835932,1.6014979)" />
  </g>
</svg>
